<?xml version="1.0" encoding="UTF-8"?>
<svg width="511px" height="463px" viewBox="0 0 511 463" version="1.1" xmlns="http://www.w3.org/2000/svg" xmlns:xlink="http://www.w3.org/1999/xlink">
    <!-- Generator: Sketch 49.2 (51160) - http://www.bohemiancoding.com/sketch -->
    <title>adaptive-layout-white</title>
    <desc>Created with Sketch.</desc>
    <defs></defs>
    <g id="Page-1" stroke="none" stroke-width="1" fill="none" fill-rule="evenodd">
        <g id="adaptive-layout-white" fill-rule="nonzero">
            <path d="M487.5,0 L23.5,0 C10.542,0 0,10.542 0,23.5 L0,327.5 C0,340.458 10.542,351 23.5,351 L181.557,351 L169.843,392 L135.5,392 C131.358,392 128,395.358 128,399.5 C128,403.642 131.358,407 135.5,407 L175.476,407 C175.485,407 175.495,407.002 175.504,407.002 C175.512,407.002 175.52,407 175.528,407 L271.5,407 C275.642,407 279,403.642 279,399.5 C279,395.358 275.642,392 271.5,392 L185.443,392 L197.157,351 L271.5,351 C275.642,351 279,347.642 279,343.5 C279,339.358 275.642,336 271.5,336 L23.5,336 C18.813,336 15,332.187 15,327.5 L15,23.5 C15,18.813 18.813,15 23.5,15 L487.5,15 C492.187,15 496,18.813 496,23.5 L496,327.5 C496,331.642 499.358,335 503.5,335 C507.642,335 511,331.642 511,327.5 L511,23.5 C511,10.542 500.458,0 487.5,0 Z" id="Shape" fill="#FFFFFF"></path>
            <path d="M471.5,32 L39.5,32 C35.358,32 32,35.358 32,39.5 L32,311.5 C32,315.642 35.358,319 39.5,319 L271.5,319 C275.642,319 279,315.642 279,311.5 C279,307.358 275.642,304 271.5,304 L47,304 L47,111 L464,111 L464,143.5 C464,147.642 467.358,151 471.5,151 C475.642,151 479,147.642 479,143.5 L479,39.5 C479,35.358 475.642,32 471.5,32 Z M47,96 L47,47 L464,47 L464,96 L47,96 Z" id="Shape" fill="#FFFFFF"></path>
            <path d="M391.5,64 L151.5,64 C147.358,64 144,67.358 144,71.5 C144,75.642 147.358,79 151.5,79 L391.5,79 C395.642,79 399,75.642 399,71.5 C399,67.358 395.642,64 391.5,64 Z" id="Shape" fill="#FFFFFF"></path>
            <path d="M439.5,64 L423.5,64 C419.358,64 416,67.358 416,71.5 C416,75.642 419.358,79 423.5,79 L439.5,79 C443.642,79 447,75.642 447,71.5 C447,67.358 443.642,64 439.5,64 Z" id="Shape" fill="#FFFFFF"></path>
            <path d="M71.5,64 C69.53,64 67.59,64.8 66.2,66.2 C64.8,67.59 64,69.53 64,71.5 C64,73.47 64.8,75.41 66.2,76.8 C67.59,78.2 69.53,79 71.5,79 C73.47,79 75.41,78.2 76.8,76.8 C78.2,75.41 79,73.47 79,71.5 C79,69.53 78.2,67.59 76.8,66.2 C75.41,64.8 73.47,64 71.5,64 Z" id="Shape" fill="#FFFFFF"></path>
            <path d="M95.5,64 C93.52,64 91.59,64.8 90.2,66.2 C88.8,67.59 88,69.52 88,71.5 C88,73.47 88.8,75.41 90.2,76.8 C91.59,78.2 93.53,79 95.5,79 C97.47,79 99.41,78.2 100.8,76.8 C102.2,75.41 103,73.47 103,71.5 C103,69.52 102.2,67.59 100.8,66.2 C99.41,64.8 97.48,64 95.5,64 Z" id="Shape" fill="#FFFFFF"></path>
            <path d="M119.5,64 C117.53,64 115.59,64.8 114.2,66.2 C112.8,67.59 112,69.53 112,71.5 C112,73.47 112.8,75.41 114.2,76.8 C115.59,78.2 117.53,79 119.5,79 C121.48,79 123.41,78.2 124.8,76.8 C126.2,75.41 127,73.47 127,71.5 C127,69.53 126.2,67.59 124.8,66.2 C123.41,64.8 121.48,64 119.5,64 Z" id="Shape" fill="#FFFFFF"></path>
            <path d="M455.5,168 L319.5,168 C306.542,168 296,178.542 296,191.5 L296,439.5 C296,452.458 306.542,463 319.5,463 L455.5,463 C468.458,463 479,452.458 479,439.5 L479,191.5 C479,178.542 468.458,168 455.5,168 Z M311,215 L464,215 L464,248 L311,248 L311,215 Z M311,263 L464,263 L464,416 L311,416 L311,263 Z M319.5,183 L455.5,183 C460.187,183 464,186.813 464,191.5 L464,200 L311,200 L311,191.5 C311,186.813 314.813,183 319.5,183 Z M455.5,448 L319.5,448 C314.813,448 311,444.187 311,439.5 L311,431 L464,431 L464,439.5 C464,444.187 460.187,448 455.5,448 Z" id="Shape" fill="#FFFFFF"></path>
            <path d="M415.5,224 L327.5,224 C323.358,224 320,227.358 320,231.5 C320,235.642 323.358,239 327.5,239 L415.5,239 C419.642,239 423,235.642 423,231.5 C423,227.358 419.642,224 415.5,224 Z" id="Shape" fill="#FFFFFF"></path>
            <path d="M447.5,224 L439.5,224 C435.358,224 432,227.358 432,231.5 C432,235.642 435.358,239 439.5,239 L447.5,239 C451.642,239 455,235.642 455,231.5 C455,227.358 451.642,224 447.5,224 Z" id="Shape" fill="#FFFFFF"></path>
            <path d="M87.5,136 C78.953,136 72,142.953 72,151.5 L72,255.5 C72,264.047 78.953,271 87.5,271 L207.5,271 C216.047,271 223,264.047 223,255.5 L223,151.5 C223,142.953 216.047,136 207.5,136 L87.5,136 Z M158.836,203.5 L208,160.12 L208,246.881 L158.836,203.5 Z M147.5,193.498 L99.336,151 L195.664,151 L147.5,193.498 Z M87,246.88 L87,160.12 L136.164,203.5 L87,246.88 Z M147.5,213.502 L195.664,256 L99.336,256 L147.5,213.502 Z" id="Shape" fill="#FF494E"></path>
            <path d="M255.5,151 L439.5,151 C443.642,151 447,147.642 447,143.5 C447,139.358 443.642,136 439.5,136 L255.5,136 C251.358,136 248,139.358 248,143.5 C248,147.642 251.358,151 255.5,151 Z" id="Shape" fill="#FFFFFF"></path>
            <path d="M271.5,176 L255.5,176 C251.358,176 248,179.358 248,183.5 C248,187.642 251.358,191 255.5,191 L271.5,191 C275.642,191 279,187.642 279,183.5 C279,179.358 275.642,176 271.5,176 Z" id="Shape" fill="#FFFFFF"></path>
            <path d="M271.5,216 L255.5,216 C251.358,216 248,219.358 248,223.5 C248,227.642 251.358,231 255.5,231 L271.5,231 C275.642,231 279,227.642 279,223.5 C279,219.358 275.642,216 271.5,216 Z" id="Shape" fill="#FFFFFF"></path>
            <path d="M271.5,256 L255.5,256 C251.358,256 248,259.358 248,263.5 C248,267.642 251.358,271 255.5,271 L271.5,271 C275.642,271 279,267.642 279,263.5 C279,259.358 275.642,256 271.5,256 Z" id="Shape" fill="#FFFFFF"></path>
            <path d="M431.5,280 L343.5,280 C334.953,280 328,286.953 328,295.5 L328,351.5 C328,360.047 334.953,367 343.5,367 L431.5,367 C440.047,367 447,360.047 447,351.5 L447,295.5 C447,286.953 440.047,280 431.5,280 Z M401.47,323.5 L432,304.072 L432,342.928 L401.47,323.5 Z M387.5,314.61 L356.684,295 L418.316,295 L387.5,314.61 Z M343,342.928 L343,304.072 L373.53,323.5 L343,342.928 Z M387.5,332.39 L418.316,352 L356.684,352 L387.5,332.39 Z" id="Shape" fill="#FF494E"></path>
            <path d="M439.5,384 L335.5,384 C331.358,384 328,387.358 328,391.5 C328,395.642 331.358,399 335.5,399 L439.5,399 C443.642,399 447,395.642 447,391.5 C447,387.358 443.642,384 439.5,384 Z" id="Shape" fill="#FFFFFF"></path>
        </g>
    </g>
</svg>