<?xml version="1.0" encoding="UTF-8"?>
<svg width="511px" height="399px" viewBox="0 0 511 399" version="1.1" xmlns="http://www.w3.org/2000/svg" xmlns:xlink="http://www.w3.org/1999/xlink">
    <!-- Generator: Sketch 49.2 (51160) - http://www.bohemiancoding.com/sketch -->
    <title>error-404</title>
    <desc>Created with Sketch.</desc>
    <defs></defs>
    <g id="Page-1" stroke="none" stroke-width="1" fill="none" fill-rule="evenodd">
        <g id="error-404" fill-rule="nonzero">
            <path d="M39.5,47 C41.47,47 43.41,46.2 44.8,44.8 C46.2,43.41 47,41.47 47,39.5 C47,37.52 46.2,35.59 44.8,34.2 C43.41,32.8 41.47,32 39.5,32 C37.53,32 35.59,32.8 34.2,34.2 C32.8,35.59 32,37.53 32,39.5 C32,41.47 32.8,43.41 34.2,44.8 C35.59,46.2 37.52,47 39.5,47 Z" id="Shape" fill="#202020"></path>
            <path d="M63.5,47 C65.47,47 67.41,46.2 68.8,44.8 C70.2,43.41 71,41.47 71,39.5 C71,37.53 70.2,35.59 68.8,34.2 C67.41,32.8 65.47,32 63.5,32 C61.53,32 59.59,32.8 58.2,34.2 C56.8,35.59 56,37.53 56,39.5 C56,41.47 56.8,43.41 58.2,44.8 C59.59,46.2 61.53,47 63.5,47 Z" id="Shape" fill="#202020"></path>
            <path d="M87.5,47 C89.47,47 91.41,46.2 92.8,44.8 C94.2,43.41 95,41.47 95,39.5 C95,37.53 94.2,35.59 92.8,34.2 C91.41,32.8 89.47,32 87.5,32 C85.53,32 83.59,32.8 82.2,34.2 C80.8,35.59 80,37.53 80,39.5 C80,41.47 80.8,43.41 82.2,44.8 C83.59,46.2 85.53,47 87.5,47 Z" id="Shape" fill="#202020"></path>
            <path d="M119.5,47 L423.5,47 C427.642,47 431,43.642 431,39.5 C431,35.358 427.642,32 423.5,32 L119.5,32 C115.358,32 112,35.358 112,39.5 C112,43.642 115.358,47 119.5,47 Z" id="Shape" fill="#202020"></path>
            <path d="M455.5,47 L471.5,47 C475.642,47 479,43.642 479,39.5 C479,35.358 475.642,32 471.5,32 L455.5,32 C451.358,32 448,35.358 448,39.5 C448,43.642 451.358,47 455.5,47 Z" id="Shape" fill="#202020"></path>
            <path d="M263.5,168 L247.5,168 C230.131,168 216,182.131 216,199.5 L216,247.5 C216,264.869 230.131,279 247.5,279 L263.5,279 C280.869,279 295,264.869 295,247.5 L295,199.5 C295,182.131 280.869,168 263.5,168 Z M280,247.5 C280,256.598 272.598,264 263.5,264 L247.5,264 C238.402,264 231,256.598 231,247.5 L231,199.5 C231,190.402 238.402,183 247.5,183 L263.5,183 C272.598,183 280,190.402 280,199.5 L280,247.5 Z" id="Shape" fill="#FF494E"></path>
            <path d="M199.5,240 L191,240 L191,175.5 C191,171.358 187.642,168 183.5,168 C179.358,168 176,171.358 176,175.5 L176,240 L137.906,240 L158.615,177.872 C159.925,173.943 157.801,169.695 153.871,168.385 C149.942,167.074 145.694,169.199 144.384,173.128 L120.384,245.128 C119.622,247.415 120.005,249.929 121.415,251.885 C122.825,253.841 125.089,255 127.5,255 L176,255 L176,271.5 C176,275.642 179.358,279 183.5,279 C187.642,279 191,275.642 191,271.5 L191,255 L199.5,255 C203.642,255 207,251.642 207,247.5 C207,243.358 203.642,240 199.5,240 Z" id="Shape" fill="#FF494E"></path>
            <path d="M383.5,240 L375,240 L375,175.5 C375,171.358 371.642,168 367.5,168 C363.358,168 360,171.358 360,175.5 L360,240 L321.906,240 L342.615,177.872 C343.925,173.943 341.801,169.695 337.871,168.385 C333.942,167.074 329.694,169.199 328.384,173.128 L304.384,245.128 C303.622,247.415 304.005,249.929 305.415,251.885 C306.825,253.841 309.089,255 311.5,255 L360,255 L360,271.5 C360,275.642 363.358,279 367.5,279 C371.642,279 375,275.642 375,271.5 L375,255 L383.5,255 C387.642,255 391,251.642 391,247.5 C391,243.358 387.642,240 383.5,240 Z" id="Shape" fill="#FF494E"></path>
            <path d="M471.5,0 L39.5,0 C17.72,0 0,17.72 0,39.5 L0,359.5 C0,381.28 17.72,399 39.5,399 L471.5,399 C493.28,399 511,381.28 511,359.5 L511,39.5 C511,17.72 493.28,0 471.5,0 Z M39.5,15 L471.5,15 C485.009,15 496,25.991 496,39.5 L496,64 L15,64 L15,39.5 C15,25.991 25.991,15 39.5,15 Z M471.5,384 L39.5,384 C25.991,384 15,373.009 15,359.5 L15,79 L496,79 L496,359.5 C496,373.009 485.009,384 471.5,384 Z" id="Shape" fill="#202020"></path>
        </g>
    </g>
</svg>