<?xml version="1.0" encoding="UTF-8"?>
<svg width="322px" height="512px" viewBox="0 0 322 512" version="1.1" xmlns="http://www.w3.org/2000/svg" xmlns:xlink="http://www.w3.org/1999/xlink">
    <!-- Generator: Sketch 49.2 (51160) - http://www.bohemiancoding.com/sketch -->
    <title>smartphone</title>
    <desc>Created with Sketch.</desc>
    <defs></defs>
    <g id="Page-1" stroke="none" stroke-width="1" fill="none" fill-rule="evenodd">
        <g id="smartphone" fill-rule="nonzero">
            <path d="M267.264,0 L54.736,0 C24.602,0 0.086,24.521 0.086,54.66 L0.086,73.817 L0.086,435.541 L0.086,457.341 C0.086,487.48 24.602,512.001 54.736,512.001 L267.264,512.001 C297.398,512.001 321.914,487.48 321.914,457.341 L321.914,435.541 L321.914,73.817 L321.914,54.66 C321.914,24.521 297.398,0 267.264,0 Z M301.016,457.34 C301.016,475.957 285.875,491.102 267.264,491.102 L54.736,491.102 C36.124,491.102 20.984,475.957 20.984,457.34 L20.984,445.99 L301.017,445.99 L301.017,457.34 L301.016,457.34 Z M301.017,425.092 L20.984,425.092 L20.984,84.266 L301.017,84.266 L301.017,425.092 Z M301.016,63.368 L20.984,63.368 L20.984,54.66 C20.984,36.044 36.125,20.898 54.736,20.898 L267.264,20.898 C285.876,20.898 301.016,36.044 301.016,54.66 L301.016,63.368 Z" id="Shape" fill="#FFFFFF"></path>
            <path d="M161,448.073 C149.713,448.073 140.531,457.257 140.531,468.545 C140.531,479.833 149.713,489.017 161,489.017 C172.287,489.017 181.47,479.833 181.47,468.545 C181.47,457.257 172.287,448.073 161,448.073 Z M161,468.971 C160.764,468.971 160.572,468.779 160.572,468.545 C160.572,468.311 160.763,468.119 161,468.119 C161.237,468.119 161.429,468.311 161.429,468.545 C161.429,468.779 161.236,468.971 161,468.971 Z" id="Shape" fill="#FFFFFF"></path>
            <path d="M177.367,152.901 C171.7,151.79 166.213,155.48 165.102,161.143 L132.785,325.841 C131.674,331.504 135.364,336.995 141.026,338.106 C141.705,338.24 142.382,338.303 143.05,338.303 C147.944,338.303 152.314,334.846 153.292,329.864 L185.609,165.164 C186.719,159.503 183.03,154.012 177.367,152.901 Z" id="Shape" fill="#FF494E"></path>
            <path d="M259.093,245.746 C259.085,245.575 259.085,245.403 259.068,245.232 C259.052,245.071 259.022,244.911 258.999,244.75 C258.975,244.579 258.957,244.407 258.925,244.238 C258.893,244.073 258.846,243.911 258.805,243.747 C258.765,243.584 258.733,243.42 258.686,243.259 C258.638,243.097 258.574,242.939 258.519,242.78 C258.464,242.62 258.416,242.459 258.352,242.301 C258.293,242.157 258.22,242.019 258.156,241.877 C258.079,241.709 258.009,241.537 257.922,241.372 C257.859,241.253 257.783,241.139 257.715,241.022 C257.611,240.841 257.511,240.657 257.395,240.482 C257.33,240.384 257.253,240.292 257.185,240.196 C257.051,240.008 256.921,239.818 256.773,239.637 C256.713,239.564 256.643,239.497 256.582,239.425 C256.414,239.23 256.247,239.034 256.062,238.849 L207.608,190.343 C203.53,186.261 196.913,186.256 192.83,190.336 C188.748,194.414 188.744,201.031 192.822,205.113 L233.899,246.234 L193.549,286.627 C189.472,290.709 189.475,297.326 193.557,301.405 C195.597,303.443 198.27,304.461 200.941,304.461 C203.617,304.461 206.293,303.439 208.334,301.396 L256.061,253.618 C256.246,253.433 256.413,253.237 256.581,253.042 C256.643,252.97 256.713,252.903 256.772,252.83 C256.919,252.649 257.05,252.459 257.184,252.271 C257.252,252.175 257.329,252.083 257.394,251.985 C257.51,251.809 257.609,251.626 257.714,251.445 C257.782,251.328 257.858,251.214 257.921,251.095 C258.008,250.93 258.078,250.76 258.155,250.59 C258.22,250.449 258.293,250.31 258.351,250.166 C258.415,250.009 258.463,249.847 258.518,249.687 C258.573,249.527 258.637,249.369 258.685,249.208 C258.733,249.047 258.764,248.882 258.804,248.72 C258.844,248.556 258.892,248.394 258.924,248.229 C258.956,248.06 258.974,247.887 258.998,247.717 C259.021,247.556 259.051,247.397 259.067,247.235 C259.084,247.065 259.084,246.892 259.092,246.721 C259.099,246.558 259.115,246.396 259.115,246.233 C259.115,246.071 259.1,245.909 259.093,245.746 Z" id="Shape" fill="#FF494E"></path>
            <path d="M125.125,286.627 L84.049,245.506 L124.398,205.113 C128.476,201.03 128.472,194.414 124.39,190.336 C120.307,186.257 113.692,186.261 109.612,190.343 L61.886,238.121 C61.707,238.3 61.546,238.49 61.383,238.678 C61.315,238.756 61.24,238.829 61.174,238.909 C61.038,239.076 60.919,239.252 60.795,239.425 C60.716,239.536 60.627,239.642 60.553,239.755 C60.451,239.911 60.364,240.073 60.271,240.232 C60.189,240.37 60.101,240.505 60.026,240.646 C59.952,240.787 59.893,240.932 59.826,241.075 C59.749,241.241 59.664,241.404 59.595,241.573 C59.541,241.706 59.502,241.843 59.454,241.976 C59.388,242.16 59.316,242.343 59.261,242.53 C59.218,242.672 59.191,242.817 59.155,242.962 C59.109,243.145 59.057,243.326 59.021,243.51 C58.99,243.67 58.975,243.831 58.951,243.992 C58.926,244.163 58.894,244.333 58.877,244.504 C58.861,244.672 58.86,244.84 58.853,245.01 C58.846,245.175 58.83,245.34 58.83,245.506 C58.83,245.672 58.846,245.837 58.853,246.002 C58.861,246.17 58.861,246.34 58.877,246.508 C58.893,246.676 58.925,246.843 58.949,247.012 C58.973,247.176 58.989,247.34 59.02,247.502 C59.053,247.676 59.104,247.848 59.146,248.021 C59.184,248.175 59.214,248.329 59.259,248.481 C59.309,248.652 59.376,248.819 59.436,248.988 C59.489,249.139 59.534,249.291 59.594,249.438 C59.656,249.588 59.732,249.735 59.801,249.883 C59.875,250.044 59.942,250.208 60.026,250.366 C60.092,250.49 60.171,250.608 60.241,250.731 C60.342,250.908 60.439,251.085 60.552,251.257 C60.617,251.355 60.694,251.447 60.762,251.543 C60.896,251.731 61.026,251.921 61.174,252.102 C61.234,252.175 61.304,252.242 61.365,252.314 C61.533,252.509 61.7,252.705 61.885,252.89 L110.339,301.396 C112.38,303.439 115.056,304.461 117.732,304.461 C120.405,304.461 123.077,303.442 125.116,301.405 C129.199,297.327 129.202,290.711 125.125,286.627 Z" id="Shape" fill="#FF494E"></path>
        </g>
    </g>
</svg>