<?xml version="1.0" encoding="UTF-8"?>
<svg width="512px" height="376px" viewBox="0 0 512 376" version="1.1" xmlns="http://www.w3.org/2000/svg" xmlns:xlink="http://www.w3.org/1999/xlink">
    <!-- Generator: Sketch 49.2 (51160) - http://www.bohemiancoding.com/sketch -->
    <title>crm</title>
    <desc>Created with Sketch.</desc>
    <defs></defs>
    <g id="Page-1" stroke="none" stroke-width="1" fill="none" fill-rule="evenodd">
        <g id="crm" fill-rule="nonzero">
            <path d="M478.33,0.409 L33.67,0.409 C15.105,0.409 0,15.514 0,34.079 L0,341.92 C0,360.486 15.105,375.59 33.67,375.59 L478.33,375.59 C496.896,375.59 512,360.485 512,341.92 L512,34.079 C512,15.514 496.895,0.409 478.33,0.409 Z M119.716,359.557 L33.67,359.557 C23.945,359.557 16.033,351.645 16.033,341.92 L16.033,34.079 C16.033,24.354 23.945,16.442 33.67,16.442 L119.716,16.442 L119.716,359.557 Z M495.967,341.921 C495.967,351.646 488.055,359.558 478.33,359.558 L135.75,359.558 L135.75,16.443 L478.33,16.443 C488.055,16.443 495.967,24.355 495.967,34.08 L495.967,341.921 Z" id="Shape" fill="#202020"></path>
            <path d="M196.142,34.614 L161.937,34.614 C157.51,34.614 153.92,38.203 153.92,42.631 C153.92,47.059 157.509,50.648 161.937,50.648 L196.142,50.648 C200.569,50.648 204.159,47.059 204.159,42.631 C204.159,38.203 200.569,34.614 196.142,34.614 Z" id="Shape" fill="#202020"></path>
            <path d="M93.528,34.614 L42.221,34.614 C37.794,34.614 34.204,38.203 34.204,42.631 C34.204,47.059 37.793,50.648 42.221,50.648 L93.528,50.648 C97.955,50.648 101.545,47.059 101.545,42.631 C101.545,38.203 97.956,34.614 93.528,34.614 Z" id="Shape" fill="#202020"></path>
            <path d="M93.528,120.125 L42.221,120.125 C37.794,120.125 34.204,123.714 34.204,128.142 C34.204,132.57 37.793,136.159 42.221,136.159 L93.528,136.159 C97.955,136.159 101.545,132.57 101.545,128.142 C101.545,123.714 97.956,120.125 93.528,120.125 Z" id="Shape" fill="#202020"></path>
            <path d="M93.528,188.534 L42.221,188.534 C37.794,188.534 34.204,192.123 34.204,196.551 C34.204,200.979 37.793,204.568 42.221,204.568 L93.528,204.568 C97.955,204.568 101.545,200.979 101.545,196.551 C101.545,192.123 97.956,188.534 93.528,188.534 Z" id="Shape" fill="#202020"></path>
            <path d="M93.528,256.944 L42.221,256.944 C37.794,256.944 34.204,260.533 34.204,264.961 C34.204,269.389 37.793,272.978 42.221,272.978 L93.528,272.978 C97.955,272.978 101.545,269.389 101.545,264.961 C101.545,260.533 97.956,256.944 93.528,256.944 Z" id="Shape" fill="#202020"></path>
            <path d="M93.528,154.33 L42.221,154.33 C37.794,154.33 34.204,157.919 34.204,162.347 C34.204,166.775 37.793,170.364 42.221,170.364 L93.528,170.364 C97.955,170.364 101.545,166.775 101.545,162.347 C101.545,157.919 97.956,154.33 93.528,154.33 Z" id="Shape" fill="#202020"></path>
            <path d="M93.528,222.739 L42.221,222.739 C37.794,222.739 34.204,226.328 34.204,230.756 C34.204,235.184 37.793,238.773 42.221,238.773 L93.528,238.773 C97.955,238.773 101.545,235.184 101.545,230.756 C101.545,226.328 97.956,222.739 93.528,222.739 Z" id="Shape" fill="#202020"></path>
            <path d="M76.426,308.251 L42.221,308.251 C37.794,308.251 34.204,311.84 34.204,316.268 C34.204,320.695 37.793,324.285 42.221,324.285 L76.426,324.285 C80.853,324.285 84.443,320.696 84.443,316.268 C84.443,311.84 80.853,308.251 76.426,308.251 Z" id="Shape" fill="#202020"></path>
            <path d="M76.426,68.818 L42.221,68.818 C37.794,68.818 34.204,72.407 34.204,76.835 C34.204,81.263 37.793,84.852 42.221,84.852 L76.426,84.852 C80.853,84.852 84.443,81.263 84.443,76.835 C84.443,72.407 80.853,68.818 76.426,68.818 Z" id="Shape" fill="#202020"></path>
            <path d="M264.551,34.614 L230.346,34.614 C225.919,34.614 222.329,38.203 222.329,42.631 C222.329,47.059 225.918,50.648 230.346,50.648 L264.551,50.648 C268.978,50.648 272.568,47.059 272.568,42.631 C272.568,38.203 268.979,34.614 264.551,34.614 Z" id="Shape" fill="#202020"></path>
            <path d="M332.96,34.614 L298.755,34.614 C294.328,34.614 290.738,38.203 290.738,42.631 C290.738,47.059 294.327,50.648 298.755,50.648 L332.96,50.648 C337.387,50.648 340.977,47.059 340.977,42.631 C340.977,38.203 337.388,34.614 332.96,34.614 Z" id="Shape" fill="#202020"></path>
            <path d="M401.37,34.614 L367.165,34.614 C362.738,34.614 359.148,38.203 359.148,42.631 C359.148,47.059 362.737,50.648 367.165,50.648 L401.37,50.648 C405.797,50.648 409.387,47.059 409.387,42.631 C409.387,38.203 405.797,34.614 401.37,34.614 Z" id="Shape" fill="#202020"></path>
            <path d="M469.779,34.614 L435.574,34.614 C431.147,34.614 427.557,38.203 427.557,42.631 C427.557,47.059 431.146,50.648 435.574,50.648 L469.779,50.648 C474.206,50.648 477.796,47.059 477.796,42.631 C477.796,38.203 474.206,34.614 469.779,34.614 Z" id="Shape" fill="#202020"></path>
            <path d="M252.266,215.797 C248.726,213.138 243.7,213.852 241.042,217.392 C234.406,226.225 224.274,231.291 213.244,231.291 C194.089,231.291 178.505,215.707 178.505,196.552 C178.505,177.397 194.089,161.813 213.244,161.813 C224.282,161.813 234.42,166.886 241.054,175.73 C243.711,179.271 248.736,179.99 252.277,177.332 C255.818,174.674 256.535,169.65 253.879,166.109 C244.186,153.189 229.376,145.78 213.243,145.78 C185.248,145.78 162.471,168.557 162.471,196.552 C162.471,224.547 185.248,247.324 213.243,247.324 C229.363,247.324 244.167,239.924 253.86,227.021 C256.521,223.481 255.807,218.456 252.266,215.797 Z" id="Shape" fill="#FF494E"></path>
            <path d="M331.35,212.396 C346.597,209.187 358.08,195.636 358.08,179.448 C358.08,160.882 342.975,145.778 324.41,145.778 L281.654,145.778 C277.227,145.778 273.637,149.367 273.637,153.795 L273.637,239.306 C273.637,243.733 277.226,247.323 281.654,247.323 C286.082,247.323 289.671,243.734 289.671,239.306 L289.671,213.118 L311.851,213.118 L335.099,244.116 C336.675,246.216 339.082,247.323 341.519,247.323 C343.193,247.323 344.881,246.8 346.323,245.72 C349.864,243.064 350.583,238.038 347.926,234.497 L331.35,212.396 Z M289.67,197.086 L289.67,161.813 L324.409,161.813 C334.134,161.813 342.046,169.725 342.046,179.45 C342.046,189.175 334.134,197.087 324.409,197.087 L289.67,197.087 L289.67,197.086 Z" id="Shape" fill="#FF494E"></path>
            <path d="M469.205,238.508 L460.654,152.998 C460.286,149.323 457.456,146.375 453.799,145.858 C450.146,145.34 446.605,147.389 445.234,150.819 L418.472,217.722 L391.71,150.819 C390.338,147.39 386.802,145.345 383.145,145.858 C379.488,146.375 376.658,149.323 376.29,152.998 L367.739,238.509 C367.299,242.915 370.513,246.843 374.919,247.284 C379.32,247.724 383.252,244.51 383.694,240.104 L388.987,187.177 L411.03,242.284 C412.248,245.327 415.194,247.323 418.473,247.323 C421.752,247.323 424.699,245.327 425.916,242.284 L447.959,187.177 L453.252,240.104 C453.666,244.238 457.15,247.323 461.22,247.323 C461.487,247.323 461.756,247.31 462.027,247.282 C466.431,246.843 469.645,242.914 469.205,238.508 Z" id="Shape" fill="#FF494E"></path>
        </g>
    </g>
</svg>