<?xml version="1.0" encoding="UTF-8"?>
<svg width="470px" height="426px" viewBox="0 0 470 426" version="1.1" xmlns="http://www.w3.org/2000/svg" xmlns:xlink="http://www.w3.org/1999/xlink">
    <!-- Generator: Sketch 49.2 (51160) - http://www.bohemiancoding.com/sketch -->
    <title>coding</title>
    <desc>Created with Sketch.</desc>
    <defs></defs>
    <g id="Page-1" stroke="none" stroke-width="1" fill="none" fill-rule="evenodd">
        <g id="coding" fill-rule="nonzero">
            <path d="M167.313,187.123 C165.193,183.564 160.59,182.397 157.032,184.518 L69.663,236.557 C67.392,237.909 66,240.357 66,243 C66,245.643 67.392,248.091 69.662,249.443 L157.031,301.482 C158.234,302.199 159.556,302.54 160.862,302.54 C163.418,302.54 165.91,301.232 167.312,298.877 C169.432,295.318 168.265,290.715 164.707,288.596 L88.156,243 L164.707,197.404 C168.266,195.285 169.433,190.682 167.313,187.123 Z" id="Shape" fill="#FF494E"></path>
            <path d="M302.688,298.877 C304.091,301.233 306.582,302.54 309.138,302.54 C310.444,302.54 311.766,302.199 312.969,301.482 L400.338,249.443 C402.609,248.09 404,245.643 404,243 C404,240.357 402.608,237.909 400.338,236.557 L312.969,184.518 C309.411,182.398 304.806,183.564 302.688,187.123 C300.568,190.682 301.735,195.285 305.293,197.404 L381.844,243 L305.293,288.596 C301.734,290.715 300.567,295.318 302.688,298.877 Z" id="Shape" fill="#FF494E"></path>
            <path d="M263.72,186.78 L193.827,290.858 C191.518,294.296 192.433,298.956 195.872,301.266 C197.156,302.128 198.609,302.54 200.047,302.54 C202.462,302.54 204.833,301.375 206.28,299.22 L276.173,195.142 C278.482,191.704 277.567,187.044 274.128,184.734 C270.687,182.425 266.028,183.342 263.72,186.78 Z" id="Shape" fill="#FF494E"></path>
            <path d="M462.5,0.5 L7.5,0.5 C3.357,0.5 0,3.858 0,8 L0,418 C0,422.142 3.357,425.5 7.5,425.5 L462.5,425.5 C466.643,425.5 470,422.142 470,418 L470,338 C470,333.858 466.643,330.5 462.5,330.5 C458.357,330.5 455,333.858 455,338 L455,410.5 L15,410.5 L15,75.5 L455,75.5 L455,308 C455,312.142 458.357,315.5 462.5,315.5 C466.643,315.5 470,312.142 470,308 L470,8 C470,3.858 466.643,0.5 462.5,0.5 Z M15,15.5 L292.5,15.5 L292.5,60.5 L15,60.5 L15,15.5 Z M307.5,60.5 L307.5,15.5 L455,15.5 L455,60.5 L307.5,60.5 Z" id="Shape" fill="#202020"></path>
            <path d="M381.5,30 C377.089,30 373.5,33.589 373.5,38 C373.5,42.411 377.089,46 381.5,46 C385.911,46 389.5,42.411 389.5,38 C389.5,33.589 385.911,30 381.5,30 Z" id="Shape" fill="#202020"></path>
            <path d="M340.5,30 C336.089,30 332.5,33.589 332.5,38 C332.5,42.411 336.089,46 340.5,46 C344.911,46 348.5,42.411 348.5,38 C348.5,33.589 344.911,30 340.5,30 Z" id="Shape" fill="#202020"></path>
            <path d="M422.5,30 C418.089,30 414.5,33.589 414.5,38 C414.5,42.411 418.089,46 422.5,46 C426.911,46 430.5,42.411 430.5,38 C430.5,33.589 426.911,30 422.5,30 Z" id="Shape" fill="#202020"></path>
        </g>
    </g>
</svg>