<?xml version="1.0" encoding="UTF-8"?>
<svg width="454px" height="512px" viewBox="0 0 454 512" version="1.1" xmlns="http://www.w3.org/2000/svg" xmlns:xlink="http://www.w3.org/1999/xlink">
    <!-- Generator: Sketch 49.2 (51160) - http://www.bohemiancoding.com/sketch -->
    <title>template</title>
    <desc>Created with Sketch.</desc>
    <defs></defs>
    <g id="Page-1" stroke="none" stroke-width="1" fill="none" fill-rule="evenodd">
        <g id="template" fill-rule="nonzero">
            <path d="M441.309,0 L426.507,0 L405.002,0 C400.859,0 397.501,3.359 397.501,7.502 C397.501,11.645 400.859,15.004 405.002,15.004 L438.809,15.004 L438.809,65.128 L15.192,65.128 L15.192,15.003 L343.2,15.003 L349.217,15.003 C353.36,15.003 356.718,11.644 356.718,7.501 C356.718,3.358 353.36,0 349.216,0 L342.454,0 L12.691,0 C5.797,0 0.188,5.609 0.188,12.503 L0.188,72.629 L0.188,499.498 C0.188,506.392 5.797,512.001 12.691,512.001 L441.309,512.001 C448.203,512.001 453.812,506.392 453.812,499.498 L453.812,358.52 C453.812,354.377 450.454,351.018 446.31,351.018 C442.167,351.018 438.808,354.377 438.808,358.52 L438.808,496.997 L15.192,496.997 L15.192,80.13 L438.809,80.13 L438.809,305.676 C438.809,309.819 442.167,313.178 446.311,313.178 C450.454,313.178 453.813,309.819 453.813,305.676 L453.813,72.629 L453.813,12.503 C453.811,5.609 448.203,0 441.309,0 Z" id="Shape" fill="#202020"></path>
            <path d="M142,347.518 L47.094,347.518 C42.95,347.518 39.592,350.877 39.592,355.02 C39.592,359.163 42.951,362.522 47.094,362.522 L142,362.522 C146.144,362.522 149.502,359.163 149.502,355.02 C149.502,350.877 146.143,347.518 142,347.518 Z" id="Shape" fill="#202020"></path>
            <path d="M142,380.525 L47.094,380.525 C42.95,380.525 39.592,383.884 39.592,388.027 C39.592,392.169 42.951,395.528 47.094,395.528 L142,395.528 C146.144,395.528 149.502,392.17 149.502,388.027 C149.502,383.884 146.143,380.525 142,380.525 Z" id="Shape" fill="#202020"></path>
            <path d="M142,413.532 L47.094,413.532 C42.95,413.532 39.592,416.89 39.592,421.033 C39.592,425.176 42.951,428.535 47.094,428.535 L142,428.535 C146.144,428.535 149.502,425.176 149.502,421.033 C149.502,416.891 146.143,413.532 142,413.532 Z" id="Shape" fill="#202020"></path>
            <path d="M142,446.538 L47.094,446.538 C42.95,446.538 39.592,449.897 39.592,454.04 C39.592,458.183 42.951,461.542 47.094,461.542 L142,461.542 C146.144,461.542 149.502,458.183 149.502,454.04 C149.502,449.897 146.143,446.538 142,446.538 Z" id="Shape" fill="#202020"></path>
            <path d="M274.453,347.518 L179.547,347.518 C175.403,347.518 172.045,350.877 172.045,355.02 C172.045,359.163 175.404,362.522 179.547,362.522 L274.453,362.522 C278.596,362.522 281.955,359.163 281.955,355.02 C281.955,350.877 278.596,347.518 274.453,347.518 Z" id="Shape" fill="#202020"></path>
            <path d="M274.453,380.525 L179.547,380.525 C175.403,380.525 172.045,383.884 172.045,388.027 C172.045,392.169 175.404,395.528 179.547,395.528 L274.453,395.528 C278.596,395.528 281.954,392.17 281.955,388.027 C281.955,383.884 278.596,380.525 274.453,380.525 Z" id="Shape" fill="#202020"></path>
            <path d="M274.453,413.532 L179.547,413.532 C175.403,413.532 172.045,416.89 172.045,421.033 C172.045,425.176 175.404,428.535 179.547,428.535 L274.453,428.535 C278.596,428.535 281.954,425.176 281.955,421.033 C281.955,416.891 278.596,413.532 274.453,413.532 Z" id="Shape" fill="#202020"></path>
            <path d="M274.453,446.538 L179.547,446.538 C175.403,446.538 172.045,449.897 172.045,454.04 C172.045,458.183 175.404,461.542 179.547,461.542 L274.453,461.542 C278.596,461.542 281.955,458.183 281.955,454.04 C281.955,449.897 278.596,446.538 274.453,446.538 Z" id="Shape" fill="#202020"></path>
            <path d="M406.907,347.518 L312,347.518 C307.856,347.518 304.498,350.877 304.498,355.02 C304.498,359.163 307.857,362.522 312,362.522 L406.906,362.522 C411.05,362.522 414.409,359.163 414.409,355.02 C414.409,350.877 411.05,347.518 406.907,347.518 Z" id="Shape" fill="#202020"></path>
            <path d="M406.907,380.525 L312,380.525 C307.856,380.525 304.498,383.884 304.498,388.027 C304.498,392.169 307.857,395.528 312,395.528 L406.906,395.528 C411.05,395.528 414.408,392.17 414.409,388.027 C414.409,383.884 411.05,380.525 406.907,380.525 Z" id="Shape" fill="#202020"></path>
            <path d="M406.907,413.532 L312,413.532 C307.856,413.532 304.498,416.89 304.498,421.033 C304.498,425.176 307.857,428.535 312,428.535 L406.906,428.535 C411.05,428.535 414.408,425.176 414.409,421.033 C414.409,416.891 411.05,413.532 406.907,413.532 Z" id="Shape" fill="#202020"></path>
            <path d="M406.907,446.538 L312,446.538 C307.856,446.538 304.498,449.897 304.498,454.04 C304.498,458.183 307.857,461.542 312,461.542 L406.906,461.542 C411.05,461.542 414.409,458.183 414.409,454.04 C414.409,449.897 411.05,446.538 406.907,446.538 Z" id="Shape" fill="#202020"></path>
            <path d="M406.906,103.141 L148.984,103.141 C144.84,103.141 141.482,106.5 141.482,110.643 C141.482,114.786 144.841,118.145 148.984,118.145 L399.405,118.145 L399.405,208.173 L54.595,208.173 L54.595,118.145 L97.974,118.145 C102.118,118.145 105.476,114.786 105.476,110.643 C105.476,106.5 102.117,103.141 97.974,103.141 L47.094,103.141 C42.95,103.141 39.592,106.5 39.592,110.643 L39.592,215.674 C39.592,219.817 42.951,223.176 47.094,223.176 L406.906,223.176 C411.05,223.176 414.408,219.818 414.408,215.674 L414.408,110.643 C414.408,106.5 411.049,103.141 406.906,103.141 Z" id="Shape" fill="#202020"></path>
            <path d="M401.905,237.688 L317,237.688 C310.106,237.688 304.497,243.297 304.497,250.191 L304.497,314.218 C304.497,321.112 310.106,326.721 317,326.721 L401.905,326.721 C408.799,326.721 414.408,321.112 414.408,314.218 L414.408,250.191 C414.408,243.297 408.799,237.688 401.905,237.688 Z M385.093,252.691 L359.453,272.69 L333.814,252.691 L385.093,252.691 Z M319.501,260.555 L347.256,282.204 L319.501,303.853 L319.501,260.555 Z M333.814,311.717 L359.453,291.718 L385.093,311.717 L333.814,311.717 Z M399.405,303.854 L371.65,282.204 L399.405,260.554 L399.405,303.854 Z" id="Shape" fill="#FF494E"></path>
            <path d="M269.452,237.688 L184.548,237.688 C177.654,237.688 172.045,243.297 172.045,250.191 L172.045,314.218 C172.045,321.112 177.654,326.721 184.548,326.721 L269.452,326.721 C276.346,326.721 281.955,321.112 281.955,314.218 L281.955,250.191 C281.954,243.297 276.346,237.688 269.452,237.688 Z M252.639,252.691 L227,272.69 L201.361,252.691 L252.639,252.691 Z M187.049,260.555 L214.803,282.204 L187.049,303.853 L187.049,260.555 Z M201.361,311.717 L227,291.718 L252.639,311.717 L201.361,311.717 Z M266.951,303.853 L239.197,282.204 L266.951,260.555 L266.951,303.853 Z" id="Shape" fill="#FF494E"></path>
            <path d="M136.999,237.688 L52.095,237.688 C45.201,237.688 39.592,243.297 39.592,250.191 L39.592,314.218 C39.592,321.112 45.201,326.721 52.095,326.721 L137,326.721 C143.894,326.721 149.503,321.112 149.503,314.218 L149.503,250.191 C149.502,243.297 143.893,237.688 136.999,237.688 Z M120.186,252.691 L94.547,272.69 L68.907,252.691 L120.186,252.691 Z M54.595,260.555 L82.35,282.204 L54.595,303.854 L54.595,260.555 Z M68.907,311.717 L94.547,291.718 L120.186,311.717 L68.907,311.717 Z M134.499,303.853 L106.744,282.204 L134.499,260.555 L134.499,303.853 Z" id="Shape" fill="#FF494E"></path>
            <path d="M315.934,20.121 C305.594,20.121 297.181,28.534 297.181,38.874 C297.181,49.214 305.594,57.627 315.934,57.627 C326.274,57.627 334.687,49.214 334.687,38.874 C334.687,28.534 326.274,20.121 315.934,20.121 Z M315.934,42.624 C313.866,42.624 312.184,40.942 312.184,38.874 C312.184,36.806 313.866,35.124 315.934,35.124 C318.002,35.124 319.684,36.806 319.684,38.874 C319.684,40.942 318.002,42.624 315.934,42.624 Z" id="Shape" fill="#202020"></path>
            <path d="M360.468,20.121 C350.127,20.121 341.714,28.534 341.714,38.874 C341.714,49.214 350.127,57.627 360.468,57.627 C370.808,57.627 379.221,49.214 379.221,38.874 C379.221,28.534 370.808,20.121 360.468,20.121 Z M360.468,42.624 C358.4,42.624 356.717,40.942 356.717,38.874 C356.717,36.806 358.4,35.124 360.468,35.124 C362.536,35.124 364.218,36.806 364.218,38.874 C364.218,40.942 362.536,42.624 360.468,42.624 Z" id="Shape" fill="#202020"></path>
            <path d="M405.003,20.121 C394.662,20.121 386.249,28.534 386.249,38.874 C386.249,49.214 394.662,57.627 405.003,57.627 C415.343,57.627 423.756,49.214 423.756,38.874 C423.756,28.534 415.343,20.121 405.003,20.121 Z M405.003,42.624 C402.935,42.624 401.252,40.942 401.252,38.874 C401.252,36.806 402.935,35.124 405.003,35.124 C407.071,35.124 408.753,36.806 408.753,38.874 C408.753,40.942 407.071,42.624 405.003,42.624 Z" id="Shape" fill="#202020"></path>
        </g>
    </g>
</svg>