<?xml version="1.0" encoding="UTF-8"?>
<svg width="347px" height="103px" viewBox="0 0 347 103" version="1.1" xmlns="http://www.w3.org/2000/svg" xmlns:xlink="http://www.w3.org/1999/xlink">
    <!-- Generator: Sketch 49.2 (51160) - http://www.bohemiancoding.com/sketch -->
    <title>Untitled 2</title>
    <desc>Created with Sketch.</desc>
    <defs>
        <linearGradient x1="-0.0253012048%" y1="50.0489716%" x2="99.9908886%" y2="50.0489716%" id="linearGradient-1">
            <stop stop-color="#FF6820" offset="0%"></stop>
            <stop stop-color="#FF224A" offset="100%"></stop>
        </linearGradient>
    </defs>
    <g id="Page-1" stroke="none" stroke-width="1" fill="none" fill-rule="evenodd">
        <g id="Group" fill-rule="nonzero">
            <g transform="translate(167.000000, 7.000000)" fill="#FF2C0F" id="Shape">
                <polygon points="15.2 4.2 12 13.5 10.3 13.5 7.8 6.3 5.3 13.5 3.6 13.5 0.4 4.2 2 4.2 4.4 11.8 7 4.2 8.4 4.2 11 11.8 13.4 4.2"></polygon>
                <path d="M20.8,4 C24.4,4 25.7,6.9 25.1,9.5 L17.7,9.5 C17.9,11.5 19.7,12.3 21.5,12.3 C22.6,12.3 23.8,12 24.6,11.5 L24.6,13 C23.7,13.4 22.5,13.7 21.3,13.7 C18.6,13.7 16.2,12.1 16.2,8.8 C16.2,5.6 18.6,4 20.8,4 Z M20.9,5.4 C19.3,5.4 17.8,6.3 17.7,8.2 L23.7,8.2 C23.9,7.2 23.2,5.4 20.9,5.4 Z"></path>
                <path d="M28.9,0 L28.9,5.6 C29.6,4.8 30.7,4 32.5,4 C35.1,4 37.1,6.1 37.1,8.9 C37.1,11.7 35.1,13.8 32.5,13.8 C30.7,13.8 29.6,13 28.8,12 L28.8,13.5 L27.4,13.5 L27.4,0 L28.9,0 Z M32.4,5.4 C30.7,5.4 29.5,6.5 29,7.7 L29,10 C29.5,11.2 30.8,12.3 32.4,12.3 C34.2,12.3 35.7,11 35.7,8.9 C35.6,6.7 34.2,5.4 32.4,5.4 Z"></path>
                <path d="M47.2,4 C48.4,4 49.6,4.3 50.5,4.8 L50.5,6.3 C49.7,5.8 48.4,5.4 47.3,5.4 C46.3,5.4 45.2,5.7 45.2,6.6 C45.2,8.6 51.1,7.8 51.1,11.1 C51.1,13 49.3,13.7 47.3,13.7 C46,13.7 44.6,13.4 43.7,12.8 L43.7,11.3 C44.6,11.9 46.1,12.3 47.2,12.3 C48.5,12.3 49.6,12.1 49.6,11.2 C49.6,9.2 43.7,10 43.7,6.7 C43.7,4.7 45.5,4 47.2,4 Z"></path>
                <path d="M55.4,1 L55.4,4.3 L59.1,4.3 L59.1,5.7 L55.4,5.7 L55.4,10.5 C55.4,11.9 56,12.3 57.4,12.3 C58.1,12.3 58.8,12.1 59.4,11.9 L59.4,13.3 C58.7,13.6 57.8,13.7 56.9,13.7 C55.1,13.7 53.8,12.7 53.8,10.7 L53.8,5.6 L52.1,5.6 L52.1,4.2 L53.8,4.2 L53.8,1.3 L55.4,1 Z"></path>
                <path d="M69.6,4.2 L69.6,13.5 L68.2,13.5 L68.2,12.1 C67.6,12.9 66.3,13.7 64.9,13.7 C62.5,13.7 61,12.2 61,9.9 L61,4.2 L62.5,4.2 L62.5,9.7 C62.5,11.4 63.4,12.3 65,12.3 C66.4,12.3 67.4,11.4 68,10.4 L68,4.2 L69.6,4.2 Z"></path>
                <path d="M81.6,0 L81.6,13.5 L80.2,13.5 L80.2,12 C79.4,12.9 78.2,13.8 76.4,13.8 C73.8,13.8 71.8,11.7 71.8,8.9 C71.8,6.1 73.8,4 76.4,4 C78.2,4 79.3,4.8 80,5.6 L80,0 L81.6,0 Z M76.7,5.4 C74.9,5.4 73.4,6.7 73.4,8.8 C73.4,10.9 74.9,12.2 76.7,12.2 C78.4,12.2 79.6,11.1 80.1,9.9 L80.1,7.6 C79.6,6.5 78.3,5.4 76.7,5.4 Z"></path>
                <path d="M85.3,2.2 C84.8,2.2 84.3,1.9 84.3,1.2 C84.3,0.6 84.8,0.2 85.3,0.2 C85.8,0.2 86.3,0.5 86.3,1.2 C86.3,1.9 85.8,2.2 85.3,2.2 Z M84.5,13.5 L84.5,4.2 L86,4.2 L86,13.5 L84.5,13.5 Z"></path>
                <path d="M93.3,4 C95.8,4 98.2,5.7 98.2,8.9 C98.2,12.1 95.8,13.8 93.3,13.8 C90.8,13.8 88.4,12.1 88.4,8.9 C88.3,5.7 90.8,4 93.3,4 Z M93.3,5.5 C91.4,5.5 89.9,6.8 89.9,8.9 C89.9,11 91.4,12.3 93.3,12.3 C95.2,12.3 96.7,11 96.7,8.9 C96.7,6.7 95.2,5.5 93.3,5.5 Z"></path>
            </g>
            <g transform="translate(167.000000, 33.000000)" fill="#FFFFFF" id="Shape">
                <polygon points="23.2 1.6 23.2 9 8.8 9 8.8 14.4 21.9 14.4 21.9 21.8 8.8 21.8 8.8 33 0.5 33 0.5 1.6"></polygon>
                <polygon points="35.9 1.6 35.9 25.6 50.3 25.6 50.3 33 27.6 33 27.6 1.6"></polygon>
                <path d="M50.9,33 L63.2,1.6 L72.2,1.6 L84.5,33 L76,33 L74.2,28.1 L61.2,28.1 L59.4,33 L50.9,33 Z M63.7,21.3 L71.8,21.3 L68.6,12.2 C68.3,11.4 68.1,10.7 67.8,9 C67.5,10.7 67.3,11.4 67,12.2 L63.7,21.3 Z"></path>
                <polygon points="122.4 1.6 122.4 33 114.1 33 114.1 16.3 107.4 26.6 102.6 26.6 95.9 16.2 95.9 33 87.6 33 87.6 1.6 95.5 1.6 105.1 16.3 114.7 1.6"></polygon>
                <polygon points="151 1.6 151 8.8 136.7 8.8 136.7 13.6 149.7 13.6 149.7 20.7 136.7 20.7 136.7 25.8 151.3 25.8 151.3 33 128.4 33 128.4 1.6 151 1.6"></polygon>
                <path d="M166.8,0.9 C170.7,0.9 174.6,1.8 177.4,3.4 L177.4,11 C174.7,9 171.2,8 167.5,8 C164.4,8 163.5,8.9 163.5,10 C163.5,14.1 179.8,12.8 179.8,24 C179.8,31.5 174.1,33.6 167.2,33.6 C162.7,33.6 158.4,32.6 155.1,30.7 L155.1,22.8 C158.8,25.4 163,26.3 166.5,26.3 C169.8,26.3 171.2,25.8 171.2,24.2 C171.2,19.7 154.9,21.2 154.9,10 C154.9,3.9 160.3,0.9 166.8,0.9 Z"></path>
            </g>
            <path d="M133.5,45.2 C133.5,69.6 113.8,89.4 89.4,89.5 L78.4,89.5 L78.4,65.8 L96.7,65.8 L100,52.1 L78.4,52.1 L78.4,45.2 C78.4,39.7 82.5,35.1 87.9,34.5 C88.3,34.4 88.8,34.4 89.2,34.4 L104.2,34.4 L107.5,20.7 L89.3,20.7 C87,20.7 84.7,21 82.5,21.7 C72.3,24.6 64.8,34.1 64.8,45.3 L64.8,103 L54.3,82.2 C22.8,68.6 0.8,37.3 0.7,0.9 L89.2,0.9 C113.7,1 133.5,20.8 133.5,45.2 Z" id="Shape" fill="url(#linearGradient-1)"></path>
        </g>
    </g>
</svg>