<?xml version="1.0" encoding="UTF-8"?>
<svg width="512px" height="440px" viewBox="0 0 512 440" version="1.1" xmlns="http://www.w3.org/2000/svg" xmlns:xlink="http://www.w3.org/1999/xlink">
    <!-- Generator: Sketch 49.2 (51160) - http://www.bohemiancoding.com/sketch -->
    <title>marketing</title>
    <desc>Created with Sketch.</desc>
    <defs></defs>
    <g id="Page-1" stroke="none" stroke-width="1" fill="none" fill-rule="evenodd">
        <g id="marketing" fill-rule="nonzero">
            <path d="M485.083,0.653 L26.917,0.653 C12.075,0.653 0,12.728 0,27.571 L0,412.43 C0,427.272 12.075,439.347 26.917,439.347 L485.083,439.347 C499.925,439.347 512,427.272 512,412.43 L512,27.571 C512,12.728 499.925,0.653 485.083,0.653 Z M127.141,17.834 L458.166,17.834 L458.166,37.306 L127.141,37.306 L127.141,17.834 Z M90.488,17.834 L109.96,17.834 L109.96,37.306 L90.488,37.306 L90.488,17.834 Z M53.834,17.834 L73.306,17.834 L73.306,37.306 L53.834,37.306 L53.834,17.834 Z M17.181,27.571 C17.181,22.202 21.548,17.835 26.917,17.835 L36.653,17.835 L36.653,37.307 L17.181,37.307 L17.181,27.571 Z M494.819,412.43 C494.819,417.799 490.452,422.166 485.083,422.166 L26.917,422.166 C21.548,422.166 17.181,417.799 17.181,412.43 L17.181,54.488 L494.819,54.488 L494.819,412.43 Z M494.819,37.306 L475.347,37.306 L475.347,17.834 L485.083,17.834 C490.452,17.834 494.819,22.201 494.819,27.57 L494.819,37.306 Z" id="Shape" fill="#FFFFFF"></path>
            <path d="M466.756,73.96 L45.244,73.96 C40.5,73.96 36.653,77.806 36.653,82.551 C36.653,87.295 40.499,91.142 45.244,91.142 L466.756,91.142 C471.5,91.142 475.347,87.296 475.347,82.551 C475.347,77.806 471.5,73.96 466.756,73.96 Z" id="Shape" fill="#FFFFFF"></path>
            <path d="M329.307,128.94 L310.98,128.94 C303.073,128.94 296.363,134.138 294.073,141.293 C220.375,184.31 140.545,191.593 117.567,192.801 C108.163,193.297 100.797,201.081 100.797,210.525 L100.797,247.801 C100.797,257.245 108.163,265.029 117.567,265.524 C122.146,265.765 128.993,266.249 137.59,267.208 L163.403,362.109 C165.5,369.819 172.545,375.203 180.535,375.203 L210.152,375.203 C210.161,375.203 210.17,375.205 210.18,375.205 C210.191,375.205 210.203,375.203 210.213,375.203 L219.348,375.203 C224.092,375.203 227.939,371.357 227.939,366.612 C227.939,361.867 224.093,358.021 219.348,358.021 L216.747,358.021 L194.789,277.511 C225.114,285.066 260.239,297.283 294.073,317.031 C296.364,324.187 303.075,329.384 310.98,329.384 L329.307,329.384 C339.097,329.384 347.061,321.42 347.061,311.63 L347.061,146.69 C347.06,136.904 339.096,128.94 329.307,128.94 Z M137.45,249.916 C129.373,249.052 122.902,248.6 118.469,248.366 C118.179,248.351 117.978,248.119 117.978,247.801 L117.978,210.525 C117.978,210.208 118.18,209.975 118.469,209.959 C122.902,209.725 129.373,209.273 137.45,208.409 L137.45,249.916 Z M198.935,358.022 L180.533,358.022 C180.275,358.022 180.047,357.848 179.98,357.599 L156.068,269.685 C162.203,270.643 168.812,271.809 175.809,273.227 L198.935,358.022 Z M329.879,311.633 C329.879,311.949 329.622,312.206 329.306,312.206 L310.98,312.206 C310.664,312.206 310.407,311.949 310.407,311.633 L310.407,210.838 C310.407,206.094 306.561,202.247 301.816,202.247 C297.072,202.247 293.225,206.093 293.225,210.838 L293.225,296.854 C242.359,269.301 189.976,257.31 154.63,252.104 L154.63,206.223 C189.976,201.017 242.36,189.026 293.225,161.473 L293.225,174.185 C293.225,178.929 297.071,182.776 301.816,182.776 C306.56,182.776 310.407,178.93 310.407,174.185 L310.407,146.694 C310.407,146.378 310.664,146.121 310.98,146.121 L329.307,146.121 C329.623,146.121 329.88,146.378 329.88,146.694 L329.88,311.633 L329.879,311.633 Z" id="Shape" fill="#FF494E"></path>
            <path d="M430.103,220.573 L375.123,220.573 C370.379,220.573 366.532,224.419 366.532,229.164 C366.532,233.908 370.378,237.755 375.123,237.755 L430.103,237.755 C434.847,237.755 438.694,233.909 438.694,229.164 C438.694,224.419 434.847,220.573 430.103,220.573 Z" id="Shape" fill="#FF494E"></path>
            <path d="M419.46,170.343 C417.339,166.099 412.179,164.379 407.935,166.501 L371.282,184.828 C367.038,186.95 365.318,192.109 367.44,196.353 C368.945,199.362 371.978,201.103 375.13,201.103 C376.421,201.103 377.731,200.811 378.965,200.195 L415.618,181.868 C419.862,179.746 421.582,174.587 419.46,170.343 Z" id="Shape" fill="#FF494E"></path>
            <path d="M415.618,276.46 L378.965,258.133 C374.722,256.012 369.562,257.731 367.44,261.975 C365.318,266.219 367.038,271.379 371.282,273.5 L407.935,291.827 C409.169,292.443 410.479,292.735 411.77,292.735 C414.921,292.735 417.955,290.994 419.46,287.984 C421.582,283.741 419.862,278.581 415.618,276.46 Z" id="Shape" fill="#FF494E"></path>
        </g>
    </g>
</svg>