<?xml version="1.0" encoding="UTF-8"?>
<svg width="492px" height="481px" viewBox="0 0 492 481" version="1.1" xmlns="http://www.w3.org/2000/svg" xmlns:xlink="http://www.w3.org/1999/xlink">
    <!-- Generator: Sketch 49.2 (51160) - http://www.bohemiancoding.com/sketch -->
    <title>send</title>
    <desc>Created with Sketch.</desc>
    <defs></defs>
    <g id="Page-1" stroke="none" stroke-width="1" fill="none" fill-rule="evenodd">
        <g id="send" fill="#FFFFFF" fill-rule="nonzero">
            <path d="M490.916,8.991 C490.703,7.818 490.276,6.644 489.636,5.684 C489.529,5.471 489.423,5.151 489.316,4.937 C489.209,4.724 488.996,4.617 488.783,4.404 C488.356,3.871 487.823,3.337 487.29,2.911 C486.863,2.591 486.437,2.271 486.01,1.951 C485.797,1.844 485.69,1.631 485.477,1.524 C485.157,1.417 484.73,1.204 484.304,1.097 C483.771,0.884 483.237,0.67 482.704,0.564 C482.064,0.457 481.424,0.351 480.784,0.351 C480.251,0.351 479.717,0.351 479.184,0.351 C478.437,0.458 477.691,0.671 477.051,0.884 C476.731,0.991 476.304,0.991 475.984,1.097 L6.436,204.085 C0.996,206.432 -1.457,212.725 0.889,218.165 C1.956,220.512 3.769,222.538 6.116,223.605 L181.476,306.058 L181.476,470.005 C181.476,475.872 186.276,480.672 192.143,480.672 C195.876,480.672 199.29,478.752 201.21,475.552 L275.343,355.019 L389.903,415.392 C395.13,418.165 401.53,416.139 404.303,410.912 C404.73,410.059 405.05,409.099 405.263,408.245 L490.81,13.258 C490.81,13.045 490.81,12.831 490.81,12.618 C490.917,11.978 490.917,11.445 491.023,10.911 C491.022,10.271 491.022,9.631 490.916,8.991 Z M190.009,286.324 L36.836,214.218 L433.209,43.124 L190.009,286.324 Z M202.809,432.138 L202.809,316.831 L256.462,345.098 L202.809,432.138 Z M387.449,389.898 L286.649,336.885 L268.516,325.685 L267.769,326.965 L210.062,296.565 L462.116,44.298 L387.449,389.898 Z" id="Shape"></path>
        </g>
    </g>
</svg>